<!-- icon666.com - MILLIONS vector ICONS FREE --><svg id="Layer_1" enable-background="new 0 0 511 511" viewBox="0 0 511 511" xmlns="http://www.w3.org/2000/svg"><g><path d="m367.5 343.5-64-64h112l64 64z" fill="#ffc277"></path><path d="m95.5 279.5h208v224h-208z" fill="#fee95d"></path><path d="m287.5 295.5-48 48h-144v16h152l64-64z" fill="#ffc277"></path><path d="m303.5 279.5h112v224h-112z" fill="#fee95d"></path><g fill="#ffc277"><path d="m95.5 487.5h320v16h-320z"></path><path d="m391.5 279.5h24v224h-24z"></path><path d="m95.5 279.5-64 64h208l64-64z"></path><path d="m415.5 279.5 64-64h-112l-64 64z"></path><path d="m95.5 279.5-64-64h112l64 64z"></path></g><path d="m279.5 39.5c-44.183 0-80 35.817-80 80 0 15.064 4.17 29.151 11.409 41.182l-19.409 46.818 46.818-19.409c12.031 7.239 26.118 11.409 41.182 11.409 44.183 0 80-35.817 80-80s-35.817-80-80-80z" fill="#c6fff6"></path><path d="m279.5 39.5c-2.7 0-5.368.138-8 .399 40.426 4.014 72 38.118 72 79.601 0 41.479-31.568 75.581-71.99 79.6 2.628.261 5.292.4 7.99.4 44.183 0 80-35.817 80-80s-35.817-80-80-80z" fill="#8ad8f6"></path><circle cx="159.5" cy="23.5" fill="#fee95d" r="16"></circle><circle cx="431.5" cy="143.5" fill="#fee95d" r="16"></circle><path d="m316.5 100.5-18-18-19 19-19-19-18 18 19 19-19 19 18 18 19-19 19 19 18-18-19-19z" fill="#f05475"></path><g><g><path d="m159.5 456h16v15h-16z" fill="#fff"></path></g><g><path d="m191.5 456h16v15h-16z" fill="#fff"></path></g><g><path d="m223.5 456h16v15h-16z" fill="#fff"></path></g></g><g><path d="m426.107 279.5 71.499-71.5h-133.212l-46.197 46.196 10.607 10.607 41.802-41.803h90.787l-49.001 49h-201.785l-64.001-64h-133.212l71.5 71.5-71.5 71.5h229.213l53.393-53.394v198.394h-193v-128.5h-15v143.5h335v-160h74.606zm-285.713-56.5 48.999 49h-90.786l-49.001-49zm96 113h-186.788l49-49h186.787zm171.606 160h-97v-209h97zm15-198.393 38.394 38.393h-38.394z"></path><path d="m177.632 221.368 60.16-24.94c12.76 6.927 27.098 10.572 41.708 10.572 48.248 0 87.5-39.252 87.5-87.5s-39.252-87.5-87.5-87.5-87.5 39.252-87.5 87.5c0 14.61 3.645 28.948 10.572 41.708zm39.703-64.554c-6.761-11.236-10.335-24.139-10.335-37.314 0-39.977 32.523-72.5 72.5-72.5s72.5 32.523 72.5 72.5-32.523 72.5-72.5 72.5c-13.175 0-26.078-3.574-37.314-10.335l-3.243-1.952-33.574 13.919 13.919-33.574z"></path><path d="m159.5 47c12.958 0 23.5-10.542 23.5-23.5s-10.542-23.5-23.5-23.5-23.5 10.542-23.5 23.5 10.542 23.5 23.5 23.5zm0-32c4.687 0 8.5 3.813 8.5 8.5s-3.813 8.5-8.5 8.5-8.5-3.813-8.5-8.5 3.813-8.5 8.5-8.5z"></path><path d="m408 143.5c0 12.958 10.542 23.5 23.5 23.5s23.5-10.542 23.5-23.5-10.542-23.5-23.5-23.5-23.5 10.542-23.5 23.5zm23.5-8.5c4.687 0 8.5 3.813 8.5 8.5s-3.813 8.5-8.5 8.5-8.5-3.813-8.5-8.5 3.813-8.5 8.5-8.5z"></path><path d="m260.5 167.106 19-19 19 19 28.606-28.606-19-19 19-19-28.606-28.606-19 19-19-19-28.606 28.606 19 19-19 19zm-7.394-66.606 7.394-7.394 19 19 19-19 7.394 7.394-19 19 19 19-7.394 7.394-19-19-19 19-7.394-7.394 19-19z"></path><path d="m104 119.5h15v-16.5h16.5v-15h-16.5v-16.5h-15v16.5h-16.5v15h16.5z"></path><path d="m392 71.5h15v-16.5h16.5v-15h-16.5v-16.5h-15v16.5h-16.5v15h16.5z"></path><path d="m340.804 444.804 11.196-11.197v37.893h15v-37.893l11.196 11.197 10.608-10.608-29.304-29.302-29.304 29.302z"></path></g></g></svg>